<?xml version="1.0" standalone="no"?>
<!DOCTYPE svg PUBLIC "-//W3C//DTD SVG 20010904//EN"
 "http://www.w3.org/TR/2001/REC-SVG-20010904/DTD/svg10.dtd">
<svg version="1.0" xmlns="http://www.w3.org/2000/svg"
 width="32" height="32" viewBox="0 0 613.000000 407.000000"
 preserveAspectRatio="xMidYMid meet">

<g transform="translate(0.000000,407.000000) scale(0.100000,-0.100000)"
fill="#000000" stroke="none">
<path d="M2842 4043 c-6 -16 -11 -62 -11 -103 0 -86 -7 -110 -49 -162 -35 -45
-47 -73 -62 -157 -6 -35 -25 -87 -41 -116 -16 -29 -35 -85 -44 -131 -8 -43
-23 -119 -34 -169 -30 -137 -36 -349 -15 -525 19 -158 21 -252 9 -347 -7 -54
-5 -66 14 -98 26 -45 27 -93 2 -227 -54 -282 -69 -505 -43 -603 l11 -40 -2 53
c-1 38 2 52 12 52 11 0 11 3 1 15 -7 9 -10 18 -7 22 4 3 2 12 -4 19 -6 7 -8
21 -5 31 3 10 5 22 5 27 0 5 5 13 13 17 10 7 8 9 -7 9 -19 1 -19 2 -3 14 14
10 17 25 14 71 -2 35 2 73 10 92 8 18 14 56 14 85 0 34 3 48 9 39 7 -11 10
-10 15 6 4 11 4 28 0 37 -3 9 -1 16 4 16 6 0 12 12 14 28 2 15 8 26 16 24 10
-2 10 2 0 17 -9 15 -9 25 -1 43 12 23 27 85 22 90 -1 2 4 14 11 28 8 14 13 46
12 73 -2 27 2 54 7 61 13 16 54 184 53 214 -1 12 5 25 12 28 9 3 13 15 10 30
-2 13 0 24 5 24 5 0 7 10 4 21 -4 14 0 25 11 31 9 5 16 21 16 38 0 17 5 30 11
30 7 0 9 9 5 23 -3 14 1 32 9 43 8 10 15 29 15 41 0 12 5 25 10 28 6 3 10 14
10 24 0 28 24 68 38 63 6 -2 12 1 12 7 0 6 -7 11 -16 11 -12 0 -14 3 -6 13 5
6 16 31 23 55 9 31 17 42 33 43 21 0 21 1 1 8 -19 8 -19 8 3 15 18 6 22 15 22
50 0 23 3 46 7 50 4 3 8 12 9 19 5 27 34 83 54 105 11 12 18 26 15 32 -3 5 4
14 15 20 12 6 19 17 16 25 -5 14 28 48 55 58 9 3 22 0 28 -6 8 -8 11 -4 11 16
0 20 4 25 16 20 10 -4 17 1 21 16 3 12 13 21 23 21 20 0 50 -25 50 -41 0 -5 6
-9 14 -9 8 0 17 -8 21 -17 6 -17 7 -17 16 0 6 9 14 15 20 12 12 -8 12 2 -1 26
-7 13 -7 19 0 19 5 0 10 9 10 20 0 13 7 20 20 20 13 0 17 5 14 14 -7 18 30 39
54 32 9 -3 24 -1 32 4 10 6 11 10 3 10 -7 0 -13 5 -13 10 0 6 13 10 29 10 17
0 33 5 36 10 3 6 17 10 31 10 13 0 24 5 24 10 0 16 73 12 97 -5 17 -12 27 -13
50 -4 26 10 27 12 8 19 -19 8 -19 9 3 9 12 1 33 -6 45 -13 12 -8 39 -17 60
-19 20 -2 47 -13 58 -23 18 -16 19 -16 13 -1 -4 13 -1 17 15 17 12 0 21 5 21
10 0 33 64 -11 87 -60 8 -17 12 -20 12 -8 1 9 6 20 12 24 8 5 10 0 6 -17 -3
-13 -2 -31 3 -39 7 -11 12 -10 29 11 11 13 19 29 16 35 -2 7 4 10 16 7 20 -6
21 -5 23 65 2 29 -2 42 -11 42 -15 0 -18 56 -3 65 6 3 10 15 10 25 0 21 37 61
54 59 6 0 5 -3 -1 -6 -7 -2 -13 -9 -13 -14 0 -6 6 -7 17 -1 19 11 63 -4 63
-22 0 -6 7 -3 14 7 9 12 16 14 21 8 3 -6 15 -11 26 -11 10 0 19 -4 19 -10 0
-5 8 -10 18 -10 10 0 22 -4 27 -9 6 -5 20 -12 32 -15 16 -5 23 -2 26 11 3 15
4 15 4 -2 1 -44 3 -46 23 -40 14 5 20 2 20 -9 0 -9 5 -16 10 -16 6 0 10 5 10
11 0 6 7 8 16 5 8 -3 27 0 42 7 36 17 69 11 75 -15 4 -12 10 -17 17 -13 7 4
16 1 21 -6 5 -9 3 -16 -9 -21 -16 -6 -15 -7 1 -7 10 -1 15 -5 12 -11 -3 -5 1
-10 10 -10 11 0 15 -5 11 -15 -5 -15 5 -20 17 -8 4 3 -1 15 -10 25 -12 14 -14
21 -5 30 8 8 13 7 18 -5 3 -9 10 -17 16 -17 5 0 7 4 3 9 -3 5 -1 12 5 16 5 3
10 3 11 -2 0 -4 2 -18 5 -30 2 -14 -1 -23 -8 -23 -7 0 2 -13 20 -30 18 -16 37
-30 43 -30 5 0 9 -7 9 -15 0 -8 5 -15 10 -15 6 0 10 -4 10 -10 0 -5 -7 -10
-15 -10 -8 0 -15 -5 -15 -11 0 -5 5 -7 10 -4 18 11 7 -13 -37 -84 -23 -36 -21
-61 6 -61 14 0 14 -2 1 -10 -20 -12 -23 -60 -4 -60 8 0 14 -7 14 -15 0 -8 9
-15 20 -15 11 0 20 -7 20 -15 0 -8 14 -17 35 -21 19 -3 35 -12 35 -19 0 -7 9
-11 23 -8 12 2 34 0 50 -6 23 -9 27 -16 27 -48 0 -28 3 -34 10 -23 8 12 10 11
10 -7 0 -17 -4 -21 -17 -17 -16 5 -16 4 -2 -5 11 -7 15 -19 12 -35 -7 -34 -29
-52 -46 -38 -7 6 -57 14 -110 18 -53 4 -97 11 -97 15 0 5 -13 6 -29 3 -25 -5
-30 -2 -39 24 -8 24 -8 30 2 26 18 -7 45 28 50 65 3 29 2 30 -13 18 -9 -8 -22
-12 -30 -9 -8 2 -11 0 -7 -6 4 -6 -11 -9 -42 -6 -121 8 -177 16 -180 25 -5 13
-29 11 -36 -3 -3 -9 -9 -8 -20 6 -15 19 -16 19 -22 0 -9 -23 -39 -54 -54 -54
-5 0 -9 -3 -9 -7 3 -20 -2 -27 -10 -14 -7 11 -13 9 -30 -8 -11 -11 -25 -21
-29 -21 -10 0 -42 -33 -42 -42 0 -3 12 -9 26 -12 19 -5 24 -11 19 -26 -5 -16
-2 -20 15 -20 17 0 19 -3 10 -19 -7 -14 -7 -22 2 -27 11 -7 -48 -27 -116 -41
-16 -3 -31 -14 -33 -24 -3 -11 -12 -19 -19 -19 -8 0 -17 -7 -20 -15 -4 -8 -10
-13 -14 -10 -5 3 -22 -6 -38 -20 -16 -14 -37 -25 -45 -25 -31 0 -207 -149
-207 -175 0 -8 -6 -12 -15 -9 -16 6 -30 -32 -23 -63 4 -15 7 -12 19 12 7 17
16 32 19 35 3 3 11 17 19 32 8 15 24 31 35 34 42 13 186 86 186 94 0 10 52 25
123 35 38 5 54 2 81 -14 18 -12 41 -21 50 -21 9 0 16 -4 16 -10 0 -5 6 -7 13
-4 17 6 67 -43 67 -67 0 -10 7 -24 15 -32 12 -13 12 -23 -5 -81 -10 -37 -17
-73 -14 -80 3 -7 -3 -16 -13 -20 -10 -3 -24 -9 -32 -12 -9 -4 -11 -2 -7 5 13
21 -16 11 -34 -11 -16 -20 -21 -21 -39 -10 -13 7 -21 8 -21 2 0 -5 5 -10 11
-10 5 0 8 -4 4 -10 -3 -5 -3 -21 1 -35 5 -19 10 -23 17 -16 7 7 23 1 51 -23
46 -37 112 -57 102 -30 -4 10 3 19 22 27 33 14 32 42 -4 70 -24 19 -35 65 -12
51 8 -5 9 -2 5 9 -8 21 -6 21 28 3 15 -8 34 -12 43 -9 12 5 14 1 10 -20 -3
-14 -1 -28 5 -30 6 -2 11 -27 13 -55 2 -43 -1 -56 -18 -72 -29 -27 -88 -46
-97 -31 -4 6 -18 9 -31 6 -15 -3 -29 3 -40 15 -20 23 -72 27 -92 7 -14 -15
-20 -16 -86 -21 -23 -2 -45 0 -48 5 -3 5 0 9 7 9 25 0 -7 20 -56 35 -32 9 -53
11 -59 5 -16 -16 -32 -12 -61 18 -19 18 -29 23 -32 15 -3 -7 -11 -13 -19 -13
-20 0 -17 -18 4 -23 11 -3 9 -5 -8 -6 -14 0 -36 -8 -48 -17 -12 -8 -22 -12
-22 -7 0 4 -12 -5 -26 -20 -17 -18 -32 -26 -43 -22 -10 3 -24 -1 -31 -10 -8
-9 -26 -23 -41 -31 -15 -7 -45 -30 -66 -49 -21 -19 -42 -35 -47 -35 -17 0 -35
-34 -24 -47 7 -9 18 -7 46 9 20 11 40 25 44 32 6 8 8 7 8 -1 0 -7 7 -13 16
-13 14 0 15 2 3 17 -12 15 -12 16 3 10 10 -3 20 -2 23 3 4 6 18 10 33 10 15 1
42 14 62 30 19 17 44 30 56 30 13 0 29 7 38 15 14 15 110 24 122 12 7 -7 -8
-35 -18 -36 -5 -1 -25 -2 -45 -2 -21 -1 -30 -3 -20 -6 9 -2 17 -8 17 -12 0 -4
27 -8 60 -9 39 -2 72 -10 95 -23 37 -22 45 -39 19 -39 -8 0 -13 -4 -10 -9 8
-13 -17 -71 -31 -71 -12 0 -17 -12 -14 -32 0 -4 -9 -7 -22 -6 -28 0 -185 17
-214 22 -13 3 -23 1 -23 -4 0 -5 -9 -7 -20 -5 -13 2 -20 -2 -20 -11 0 -18 -45
-61 -73 -70 -27 -9 -59 -40 -86 -86 -25 -43 -55 -56 -79 -36 -9 8 -25 13 -34
11 -22 -5 -23 -36 -2 -54 14 -11 15 -25 9 -79 -4 -36 -7 -78 -7 -93 -1 -43 23
-136 39 -148 7 -6 13 -17 13 -23 0 -17 86 -145 123 -183 17 -18 38 -33 46 -33
9 0 33 -14 55 -30 21 -16 51 -32 66 -35 21 -5 32 -15 40 -39 6 -18 9 -39 7
-47 -2 -8 -2 -11 0 -6 3 4 14 7 26 7 20 1 20 2 5 11 -23 13 -23 33 -1 25 10
-4 14 -4 10 0 -10 11 60 35 114 40 26 2 58 8 73 14 39 14 56 13 50 -5 -4 -8
-2 -15 4 -15 6 0 14 14 17 32 l7 32 19 -23 19 -23 0 31 c0 21 5 31 15 31 8 0
15 7 15 15 0 8 9 15 20 15 11 0 20 -5 20 -11 0 -5 5 -7 10 -4 6 4 10 21 9 38
-1 42 14 90 30 95 9 3 11 -2 7 -14 -3 -11 -1 -26 5 -34 9 -12 10 -11 6 7 -3
13 -1 23 5 23 6 0 7 13 3 31 -5 22 -4 29 4 25 15 -10 14 43 -1 77 -7 15 -19
27 -25 27 -16 0 -16 13 -1 28 10 10 10 15 -2 23 -13 8 -13 11 3 20 9 5 17 17
17 24 0 8 7 15 15 15 8 0 15 5 15 10 0 6 -5 10 -12 10 -6 0 -4 7 5 18 10 10
17 29 17 41 0 12 4 19 10 16 6 -3 10 -1 10 4 0 6 5 11 10 11 15 0 59 -52 60
-69 0 -7 6 -11 15 -8 8 4 17 2 20 -3 4 -6 1 -10 -4 -10 -17 0 -13 -40 5 -47
38 -14 54 56 39 177 -5 37 -12 142 -15 223 -1 9 -6 17 -11 17 -5 0 -9 12 -9
28 1 41 -4 64 -21 98 -13 25 -14 34 -3 48 7 10 10 24 7 32 -3 8 12 33 33 57
55 61 69 80 77 101 5 13 14 17 32 12 15 -4 25 -2 25 4 0 7 5 6 13 -2 8 -7 12
-20 10 -29 -3 -11 3 -19 15 -23 21 -7 35 -29 37 -56 0 -8 8 -14 17 -14 17 1
23 -42 7 -52 -13 -7 -11 -41 2 -49 6 -4 13 -4 17 0 3 3 0 10 -8 15 -13 8 -12
10 3 10 14 0 18 -6 15 -27 -2 -16 3 -33 12 -40 13 -10 13 -14 -4 -26 -13 -10
-16 -16 -7 -21 6 -4 9 -11 6 -16 -3 -5 -1 -11 5 -15 5 -3 10 -14 10 -23 0 -10
9 -35 20 -57 14 -27 16 -41 9 -46 -7 -4 -8 -12 -4 -19 4 -6 0 -17 -8 -23 -17
-14 -30 -47 -18 -47 4 0 8 -7 8 -15 0 -8 -4 -15 -9 -15 -5 0 -6 -5 -3 -10 4
-6 -5 -10 -19 -10 -23 0 -26 -4 -26 -34 0 -19 -7 -41 -15 -50 -14 -13 -13 -16
5 -26 11 -6 18 -15 15 -21 -4 -5 -11 -7 -16 -4 -10 7 -20 -14 -24 -48 -1 -12
-3 -25 -4 -28 0 -3 -11 -5 -22 -5 -12 1 -24 -5 -27 -13 -3 -8 0 -11 7 -7 7 5
11 -1 11 -14 0 -16 -4 -20 -16 -16 -17 7 -44 -15 -44 -35 0 -10 3 -10 12 -1 7
7 16 12 21 12 5 0 1 -7 -8 -16 -9 -9 -14 -23 -11 -30 3 -9 -2 -14 -15 -14 -16
0 -18 -5 -13 -25 5 -19 2 -25 -10 -25 -10 0 -13 -5 -9 -16 4 -10 0 -20 -10
-26 -19 -10 -23 -34 -6 -40 6 -2 3 -11 -8 -24 -10 -10 -15 -15 -10 -10 14 20
6 28 -20 21 -16 -4 -35 -8 -44 -9 -8 0 -24 -9 -34 -19 -15 -16 -16 -20 -4 -28
8 -5 9 -9 2 -9 -6 0 -16 -14 -22 -32 -6 -17 -14 -28 -17 -25 -13 13 -46 -15
-41 -34 6 -21 -8 -27 -16 -6 -3 7 -6 6 -6 -5 -1 -9 -9 -19 -18 -22 -14 -4 -18
-16 -17 -46 1 -22 -2 -37 -7 -34 -5 3 -9 -2 -9 -11 0 -13 -6 -16 -26 -11 -14
4 -23 3 -20 -2 2 -4 -9 -24 -26 -43 -17 -19 -27 -29 -24 -22 3 6 2 14 -4 18
-5 3 -10 0 -10 -7 0 -8 -9 -14 -20 -15 -11 -1 -32 -11 -46 -22 -15 -12 -31
-21 -36 -21 -16 0 -47 -44 -48 -67 0 -12 -4 -24 -9 -28 -6 -3 -8 6 -5 22 5 27
5 27 -15 9 -11 -10 -23 -27 -27 -38 -5 -16 -13 -19 -36 -16 -19 3 -32 0 -35
-9 -3 -7 -14 -13 -24 -13 -23 0 -52 -61 -35 -73 7 -4 2 -9 -11 -13 -13 -4 -23
-13 -23 -20 0 -8 -4 -14 -10 -14 -5 0 -10 6 -10 13 0 8 -3 7 -10 -3 -6 -9 -5
-17 3 -22 8 -5 8 -8 1 -8 -6 0 -19 9 -28 19 -17 18 -16 20 3 26 21 6 30 35 11
35 -5 0 -10 -4 -10 -10 0 -5 -7 -7 -15 -4 -9 4 -15 0 -15 -9 0 -8 -8 -18 -17
-21 -14 -6 -15 -9 -4 -15 21 -14 -7 -25 -32 -14 -43 20 -112 32 -122 22 -17
-17 21 -36 70 -34 25 0 45 -3 45 -7 0 -4 11 -8 25 -8 14 0 25 -5 25 -11 0 -6
7 -9 15 -6 8 4 17 2 21 -4 3 -6 12 -8 18 -6 7 3 19 1 27 -3 8 -5 19 -4 26 2 7
6 13 7 13 4 0 -4 9 -2 19 4 13 6 22 7 26 0 3 -5 11 -7 18 -5 17 6 96 16 130
17 15 1 27 4 27 7 0 9 61 41 86 46 10 2 21 4 24 5 3 1 8 2 12 1 4 0 16 13 28
29 14 19 30 30 46 30 13 0 24 5 24 10 0 6 5 10 11 10 5 0 8 -4 4 -10 -3 -5 5
-20 17 -32 l23 -23 -32 -3 c-18 -2 -33 -8 -33 -13 0 -6 10 -7 23 -4 15 5 19 4
12 -3 -5 -5 -19 -12 -30 -14 -12 -2 -20 -12 -21 -24 -1 -27 -12 -44 -27 -44
-7 0 -18 -9 -25 -21 -10 -15 -20 -19 -35 -15 -15 4 -28 -2 -42 -17 -26 -29
-77 -56 -94 -49 -8 3 -11 0 -7 -6 8 -14 -51 -40 -100 -45 -19 -2 -37 -7 -41
-10 -12 -13 -33 -7 -33 8 0 20 -10 19 -25 -2 -10 -14 -32 -17 -111 -19 -127
-2 -292 14 -319 32 -12 8 -34 15 -51 17 -16 2 -56 16 -88 32 -32 15 -66 28
-75 29 -9 1 -26 7 -38 14 -16 9 -22 9 -25 0 -2 -6 -12 -9 -21 -5 -10 4 -14 12
-11 22 5 12 -1 15 -28 15 -24 0 -44 8 -62 25 -34 32 -36 31 -31 -4 4 -34 -5
-35 -56 -4 -37 21 -83 76 -73 86 4 3 -5 9 -20 13 -15 4 -26 13 -26 23 0 10
-11 24 -25 31 -14 8 -28 24 -31 37 -4 13 -10 23 -15 23 -5 0 -9 9 -9 20 0 11
-7 20 -15 20 -9 0 -15 9 -15 21 0 12 -15 35 -34 53 -19 17 -37 43 -41 58 -4
16 -10 28 -14 28 -3 0 -17 25 -30 56 -14 30 -32 61 -42 68 -10 6 -17 18 -17
26 1 8 0 26 0 39 -2 24 -2 24 -20 5 -10 -10 -21 -27 -25 -36 -5 -14 -18 -18
-54 -18 -42 -1 -46 -2 -30 -14 9 -7 17 -21 17 -30 0 -10 4 -15 9 -11 6 3 14 0
20 -7 70 -87 119 -149 179 -230 40 -53 86 -108 102 -122 19 -15 25 -26 17 -29
-6 -2 7 -10 31 -16 23 -7 40 -15 38 -20 -3 -4 18 -25 47 -46 29 -21 78 -61
109 -87 32 -27 81 -60 110 -74 29 -14 71 -36 93 -49 22 -13 77 -34 122 -46
127 -34 90 -46 -67 -23 -37 6 -33 -9 5 -20 12 -3 10 -4 -7 -2 -17 2 -29 -3
-32 -11 -8 -20 -8 -23 5 -23 5 0 7 5 4 10 -8 13 26 13 59 1 16 -7 26 -7 28 0
2 7 27 7 73 0 39 -6 113 -15 165 -21 141 -17 160 -21 160 -36 0 -17 17 -18 23
-1 3 9 9 9 28 -1 18 -10 73 -11 234 -6 116 3 275 5 355 4 80 -2 207 -3 282 -4
75 0 135 -3 132 -7 -2 -3 29 -9 69 -11 73 -5 177 -45 177 -69 0 -6 7 -8 16 -5
10 4 13 2 8 -6 -5 -8 -2 -9 9 -5 14 5 17 0 17 -22 0 -16 6 -32 13 -35 6 -4 -2
-4 -18 -2 -17 3 -37 1 -45 -5 -9 -5 188 -9 513 -9 l527 0 0 79 c0 75 -1 81
-27 99 -67 47 -194 104 -278 123 -50 11 -137 34 -195 50 -58 16 -119 29 -136
29 -16 0 -68 18 -114 41 -78 37 -128 52 -290 84 -46 10 -70 20 -82 37 -10 13
-32 37 -50 55 -30 31 -31 33 -18 78 14 49 142 244 220 335 83 96 202 263 226
315 12 28 30 85 39 128 32 159 75 501 75 600 0 126 23 196 103 324 31 48 73
129 93 178 45 107 46 122 25 480 -7 132 -14 330 -16 440 -2 181 0 216 26 374
16 96 29 185 29 198 l0 23 -1454 0 -1454 0 -10 -27z m1208 -123 c-10 -7 -11
-10 -2 -10 6 0 12 -4 12 -10 0 -5 -7 -7 -15 -4 -15 6 -20 35 -8 48 4 3 11 2
17 -4 8 -8 6 -14 -4 -20z m-99 -23 c-21 -21 -21 -21 -36 -2 -8 11 -15 14 -15
8 0 -7 -4 -13 -10 -13 -16 0 0 29 18 32 10 2 28 2 40 0 l24 -5 -21 -20z m216
7 c0 -15 7 -30 14 -35 10 -6 10 -11 0 -22 -7 -9 -9 -26 -5 -41 4 -16 2 -26 -5
-27 -6 -1 -17 -2 -23 -3 -20 -3 -121 43 -135 60 -7 10 -13 11 -18 5 -8 -13
-55 -15 -55 -2 0 5 9 7 20 4 11 -3 20 0 20 6 0 6 7 11 15 11 9 0 18 7 21 15 8
21 34 19 34 -2 1 -14 4 -12 15 7 13 23 14 23 16 5 1 -14 4 -11 9 10 7 29 8 29
9 -10 l2 -40 13 31 c8 18 22 37 33 43 10 6 18 11 18 11 0 0 1 -12 2 -26z
m-297 -5 c0 -6 -4 -7 -10 -4 -5 3 -10 11 -10 16 0 6 5 7 10 4 6 -3 10 -11 10
-16z m-70 -26 c0 -1 -3 -8 -6 -17 -7 -18 -54 -22 -54 -5 0 7 -10 1 -23 -12
-12 -13 -36 -31 -52 -39 -17 -8 -47 -25 -68 -38 -24 -15 -45 -21 -55 -16 -10
4 -23 6 -29 5 -7 -1 -13 6 -13 15 0 11 6 15 20 11 13 -3 21 1 25 14 4 10 10
19 15 19 5 0 7 7 4 15 -4 8 -1 15 5 15 6 0 11 -6 11 -14 0 -13 20 -26 41 -26
4 0 6 14 3 30 -4 19 -2 30 5 30 6 0 11 -7 11 -15 0 -18 12 -19 28 -3 9 9 12 9
12 0 0 -7 5 -12 10 -12 6 0 10 9 10 21 0 11 5 17 10 14 6 -3 10 -1 10 5 0 6
16 9 40 8 22 -2 40 -4 40 -5z m110 3 c0 -3 -4 -8 -10 -11 -5 -3 -10 -1 -10 4
0 6 5 11 10 11 6 0 10 -2 10 -4z m-435 -155 c-3 -6 -11 -11 -17 -11 -6 0 -6 6
2 15 14 17 26 13 15 -4z m1547 -811 c11 0 20 -11 24 -27 4 -16 12 -31 18 -35
8 -5 7 -8 -1 -8 -7 0 -23 -11 -37 -25 -17 -17 -33 -24 -48 -21 -13 3 -29 5
-37 5 -11 1 -10 5 4 21 13 14 16 28 11 53 -7 39 0 50 29 43 11 -3 28 -6 37 -6z
m-152 -31 c0 -24 -23 -21 -28 4 -2 10 3 17 12 17 10 0 16 -9 16 -21z m-2199
-571 c9 -22 7 -30 -9 -49 -32 -34 -56 -19 -48 30 3 22 14 53 23 70 l18 31 3
-28 c2 -15 8 -39 13 -54z m1620 -263 c5 4 9 -1 9 -9 0 -10 -7 -15 -17 -13 -29
4 -43 17 -37 32 5 13 8 12 21 0 8 -9 19 -13 24 -10z m-201 -108 c32 -7 80 -38
96 -62 9 -14 23 -25 30 -25 8 0 14 -4 14 -9 0 -11 -51 -21 -65 -13 -5 4 -26 8
-45 9 -19 1 -40 9 -46 17 -7 10 -30 16 -67 17 -32 1 -57 6 -57 11 0 4 -9 8
-20 8 -30 0 -24 18 13 41 30 19 78 21 147 6z m300 -66 c0 -14 2 -14 10 -1 8
13 10 12 10 -3 0 -10 -7 -20 -15 -23 -11 -5 -14 -15 -9 -39 3 -19 1 -35 -5
-39 -7 -4 -11 1 -11 12 0 23 -19 33 -50 25 -16 -4 -23 0 -27 16 -3 12 -10 18
-17 14 -6 -3 -7 -2 -3 3 8 9 12 10 53 12 12 1 24 10 26 20 6 23 38 25 38 3z
m-65 -1 c-3 -5 -14 -10 -23 -10 -15 0 -15 2 -2 10 20 13 33 13 25 0z m65 -130
c0 -5 -4 -10 -10 -10 -5 0 -10 5 -10 10 0 6 5 10 10 10 6 0 10 -4 10 -10z
m515 -30 c3 -5 1 -10 -4 -10 -6 0 -11 5 -11 10 0 6 2 10 4 10 3 0 8 -4 11 -10z
m-599 -42 c-3 -13 -5 -25 -5 -28 -1 -3 -5 1 -10 9 -6 9 -5 19 2 27 16 18 17
17 13 -8z m-572 -83 c27 -21 29 -29 29 -84 0 -34 -3 -64 -7 -68 -5 -5 -20 7
-35 25 -15 17 -33 32 -40 32 -7 0 -11 6 -8 13 3 8 2 20 -3 27 -5 8 -1 21 10
33 10 10 16 25 13 33 -8 21 8 16 41 -11z m71 -167 c-4 -71 -2 -67 -30 -55 -14
7 -23 17 -21 23 3 6 -1 17 -7 23 -8 8 -7 11 4 11 8 0 20 9 27 20 20 32 30 23
27 -22z m95 -38 c0 -34 -25 -52 -59 -43 -32 8 -23 39 12 36 23 -1 27 2 27 23
0 14 4 22 10 19 6 -3 10 -19 10 -35z m102 -22 c3 -7 13 -13 23 -13 10 0 19 -8
21 -18 2 -13 -3 -16 -22 -13 -17 3 -27 -1 -32 -12 -4 -12 -8 -8 -13 18 -4 19
-5 38 -3 42 8 12 22 10 26 -4z m75 -30 c-3 -8 -6 -5 -6 6 -1 11 2 17 5 13 3
-3 4 -12 1 -19z m30 -40 c-3 -8 -6 -5 -6 6 -1 11 2 17 5 13 3 -3 4 -12 1 -19z
m533 -58 c0 -9 -9 -25 -20 -35 -14 -12 -20 -14 -20 -5 0 7 8 19 18 26 16 12
16 13 -4 14 -11 0 -21 6 -21 13 0 9 9 12 24 9 13 -2 23 -11 23 -22z m-140
-520 c0 -5 -5 -10 -11 -10 -5 0 -7 5 -4 10 3 6 8 10 11 10 2 0 4 -4 4 -10z
m-32 -12 c-6 -18 -28 -21 -28 -4 0 9 7 16 16 16 9 0 14 -5 12 -12z m490 -169
c-3 -8 -7 -3 -11 10 -4 17 -3 21 5 13 5 -5 8 -16 6 -23z m-68 -144 c0 -8 -4
-15 -9 -15 -13 0 -22 16 -14 24 11 11 23 6 23 -9z m30 11 c0 -3 -4 -8 -10 -11
-5 -3 -10 -1 -10 4 0 6 5 11 10 11 6 0 10 -2 10 -4z m-70 -20 c0 -8 -7 -17
-16 -20 -23 -9 -34 -7 -34 4 0 6 7 10 15 10 8 0 15 5 15 10 0 6 5 10 10 10 6
0 10 -6 10 -14z m-100 -21 c0 -8 -4 -15 -9 -15 -5 0 -11 7 -15 15 -3 9 0 15 9
15 8 0 15 -7 15 -15z m-45 -5 c3 -5 1 -10 -4 -10 -6 0 -11 5 -11 10 0 6 2 10
4 10 3 0 8 -4 11 -10z m620 -150 c-3 -5 -13 -10 -21 -10 -8 0 -14 5 -14 10 0
6 9 10 21 10 11 0 17 -4 14 -10z"/>
<path d="M4250 3626 c0 -8 -5 -16 -11 -18 -7 -2 -10 -10 -7 -18 3 -10 10 -7
26 10 20 22 21 40 1 40 -5 0 -9 -6 -9 -14z"/>
<path d="M4174 3595 c-9 -23 10 -40 25 -22 9 11 8 17 -4 27 -12 10 -16 9 -21
-5z"/>
<path d="M4108 3382 c-3 -22 -1 -32 9 -32 14 0 16 15 4 45 -7 17 -9 15 -13
-13z"/>
<path d="M3620 3376 c0 -2 7 -7 16 -10 8 -3 12 -2 9 4 -6 10 -25 14 -25 6z"/>
<path d="M3610 3343 c-19 -2 -44 -8 -55 -12 -11 -5 -28 -12 -38 -15 -9 -3 -16
-11 -15 -18 2 -7 -7 -14 -19 -16 -28 -4 -31 -32 -3 -32 11 0 20 -4 20 -10 0
-5 -6 -9 -12 -7 -8 1 -14 -12 -16 -33 -3 -33 -2 -34 11 -16 14 19 15 19 21 -2
4 -12 13 -19 21 -16 7 3 29 -1 47 -9 18 -8 61 -17 95 -20 58 -5 63 -4 80 21
10 16 18 48 19 77 1 49 1 50 30 47 15 -2 40 -9 54 -17 14 -7 39 -19 55 -26 17
-8 46 -26 65 -41 43 -35 52 -35 39 -2 -12 34 -8 38 18 14 12 -10 23 -16 26
-13 4 3 13 -2 22 -11 44 -44 44 21 0 84 -14 20 -25 41 -25 47 0 17 -58 27 -75
13 -8 -7 -20 -8 -27 -3 -18 11 -128 13 -128 2 0 -5 17 -9 37 -9 44 0 41 -5 -9
-13 -31 -5 -37 -2 -42 16 -4 17 -8 19 -18 9 -7 -7 -36 -12 -67 -12 -51 1 -54
2 -37 15 19 14 18 15 -10 13 -16 0 -45 -3 -64 -5z m338 -71 c2 -7 -2 -10 -12
-6 -9 3 -16 11 -16 16 0 13 23 5 28 -10z m-195 -41 c3 -12 -3 -27 -13 -36 -16
-14 -19 -14 -34 9 -21 32 -20 35 7 45 27 10 33 7 40 -18z"/>
<path d="M4120 3321 c0 -5 5 -13 10 -16 6 -3 10 -2 10 4 0 5 -4 13 -10 16 -5
3 -10 2 -10 -4z"/>
<path d="M4590 3259 c0 -5 5 -7 10 -4 6 3 10 8 10 11 0 2 -4 4 -10 4 -5 0 -10
-5 -10 -11z"/>
<path d="M3275 3179 c-46 -11 -63 -24 -41 -32 8 -3 18 -2 21 3 4 6 16 10 28
10 12 0 31 7 41 15 23 17 12 18 -49 4z"/>
<path d="M3986 3132 c-4 -7 -22 -12 -41 -12 -43 0 -54 -16 -21 -32 21 -9 23
-14 14 -25 -9 -12 -7 -14 15 -11 30 4 49 18 24 18 -9 0 -17 4 -17 9 0 9 79 12
93 4 18 -11 -17 -31 -73 -44 -33 -7 -60 -17 -60 -22 0 -4 -4 -6 -9 -2 -6 3
-23 -8 -40 -24 -42 -41 -113 -50 -176 -22 -26 12 -63 21 -82 21 -21 0 -36 6
-39 15 -4 8 -10 13 -14 10 -4 -3 -20 1 -35 9 -15 8 -35 12 -44 9 -14 -4 -14
-3 -1 6 13 10 13 13 -4 26 -11 8 -34 15 -50 15 -22 0 -27 -3 -17 -9 16 -10 6
-31 -15 -31 -10 0 -9 -5 6 -20 11 -11 25 -20 31 -20 14 0 93 -42 97 -52 2 -5
12 -8 23 -8 16 0 18 -5 15 -27 -3 -14 -11 -30 -18 -35 -7 -4 12 -7 45 -5 31 1
57 0 57 -3 0 -3 21 -11 46 -18 59 -16 100 -1 108 40 4 20 13 29 33 34 15 4 48
16 71 27 24 10 53 17 63 14 10 -3 19 -1 19 3 0 4 23 14 50 21 28 7 45 16 39
20 -8 5 -8 9 1 14 7 4 17 1 22 -6 7 -11 11 -11 15 -1 7 18 34 15 27 -3 -4 -8
-1 -15 5 -15 6 0 11 4 11 9 0 4 18 11 41 14 49 6 50 7 43 35 -7 24 -25 32 -90
37 -26 2 -55 12 -65 21 -17 15 -23 16 -44 4 -22 -12 -27 -11 -39 5 -9 12 -15
15 -20 7z m124 -52 c0 -5 -10 -10 -22 -10 -19 0 -20 2 -8 10 19 13 30 13 30 0z
m-650 -34 c0 -2 -7 -6 -15 -10 -8 -3 -15 -1 -15 4 0 6 7 10 15 10 8 0 15 -2
15 -4z m297 -162 c-3 -3 -12 -4 -19 -1 -8 3 -5 6 6 6 11 1 17 -2 13 -5z"/>
<path d="M4290 3095 c0 -8 2 -15 4 -15 2 0 6 7 10 15 3 8 1 15 -4 15 -6 0 -10
-7 -10 -15z"/>
<path d="M4261 3086 c-17 -20 -3 -46 25 -46 25 0 32 14 13 26 -6 3 -15 0 -20
-7 -7 -9 -7 -5 -3 14 7 30 2 34 -15 13z"/>
<path d="M3335 3080 c-3 -5 -2 -10 4 -10 5 0 13 5 16 10 3 6 2 10 -4 10 -5 0
-13 -4 -16 -10z"/>
<path d="M4020 2591 c-29 -8 -43 -61 -17 -61 8 0 17 -7 20 -14 10 -24 77 -32
110 -12 16 9 37 16 47 16 9 0 23 6 29 13 31 38 -107 81 -189 58z"/>
<path d="M3850 2521 c4 -15 13 -37 19 -48 5 -11 9 -22 7 -24 -2 -2 7 -12 20
-22 28 -21 33 -4 8 28 -8 11 -19 36 -25 57 -5 21 -16 38 -24 38 -10 0 -12 -7
-5 -29z"/>
<path d="M3976 2211 c-4 -7 -5 -15 -2 -18 9 -9 19 4 14 18 -4 11 -6 11 -12 0z"/>
<path d="M4887 1813 c-12 -12 -7 -22 8 -17 8 4 15 10 15 15 0 11 -14 12 -23 2z"/>
<path d="M4675 1683 c4 -10 8 -26 11 -37 4 -22 12 -31 20 -24 6 7 -22 78 -32
78 -3 0 -3 -8 1 -17z"/>
<path d="M4661 1568 c-6 -17 -10 -33 -8 -34 7 -8 25 14 31 39 9 38 -10 34 -23
-5z"/>
<path d="M4620 1504 c0 -8 5 -12 10 -9 6 4 8 11 5 16 -9 14 -15 11 -15 -7z"/>
<path d="M1415 1360 c-3 -4 5 -10 18 -14 18 -5 20 -8 7 -16 -11 -7 4 -10 50
-9 62 0 64 0 39 14 -35 19 -108 35 -114 25z"/>
<path d="M2582 1320 c0 -14 2 -19 5 -12 2 6 2 18 0 25 -3 6 -5 1 -5 -13z"/>
<path d="M4640 1310 c-9 -6 -10 -10 -3 -10 6 0 15 5 18 10 8 12 4 12 -15 0z"/>
<path d="M1770 1273 c32 -23 89 -43 105 -37 7 3 22 -6 33 -20 18 -24 61 -38
47 -16 -3 6 -1 10 6 10 7 0 9 -10 7 -25 -3 -14 -1 -28 4 -31 5 -3 7 -12 4 -20
-3 -8 1 -17 8 -20 8 -3 17 -17 21 -31 5 -22 10 -25 37 -19 17 3 45 13 61 21
33 17 47 12 47 -14 0 -10 20 -37 45 -60 26 -24 42 -47 39 -55 -3 -9 20 -32 67
-65 100 -70 112 -57 34 40 -19 24 -42 52 -52 62 -15 16 -15 17 6 17 12 0 38
-7 58 -15 19 -8 42 -15 50 -15 13 0 13 3 -1 25 -19 29 -20 35 -5 35 6 0 21 8
34 19 l24 18 -72 6 c-58 4 -102 17 -222 66 -82 34 -155 59 -163 56 -7 -2 -10
-1 -7 5 5 8 -131 56 -210 74 l-30 7 25 -18z m225 -93 c3 -5 1 -10 -4 -10 -6 0
-11 5 -11 10 0 6 2 10 4 10 3 0 8 -4 11 -10z"/>
<path d="M2593 1205 c0 -27 2 -38 4 -22 2 15 2 37 0 50 -2 12 -4 0 -4 -28z"/>
<path d="M4062 886 c-9 -21 -8 -24 14 -29 25 -4 30 6 18 37 -9 23 -19 20 -32
-8z"/>
<path d="M3488 713 c7 -3 16 -2 19 1 4 3 -2 6 -13 5 -11 0 -14 -3 -6 -6z"/>
<path d="M3541 704 c0 -11 3 -14 6 -6 3 7 2 16 -1 19 -3 4 -6 -2 -5 -13z"/>
<path d="M3020 689 c0 -5 5 -7 10 -4 6 3 10 8 10 11 0 2 -4 4 -10 4 -5 0 -10
-5 -10 -11z"/>
<path d="M413 593 c43 -2 110 -2 150 0 40 1 5 3 -78 3 -82 0 -115 -2 -72 -3z"/>
<path d="M678 593 c18 -2 45 -2 60 0 15 2 0 4 -33 4 -33 0 -45 -2 -27 -4z"/>
<path d="M788 593 c6 -2 18 -2 25 0 6 3 1 5 -13 5 -14 0 -19 -2 -12 -5z"/>
<path d="M3155 550 c-3 -5 -1 -10 4 -10 6 0 11 5 11 10 0 6 -2 10 -4 10 -3 0
-8 -4 -11 -10z"/>
<path d="M3845 380 c3 -5 8 -10 11 -10 2 0 4 5 4 10 0 6 -5 10 -11 10 -5 0 -7
-4 -4 -10z"/>
<path d="M3110 336 c0 -17 5 -23 17 -22 33 5 59 -43 32 -59 -6 -4 -8 -14 -5
-24 4 -9 -3 -5 -14 9 l-20 25 0 -34 c0 -19 5 -64 10 -100 6 -36 13 -81 16 -99
l5 -32 223 0 c194 0 225 2 230 16 4 11 15 14 35 11 21 -4 35 1 47 14 9 10 26
18 38 17 11 0 30 3 40 7 12 6 17 5 13 -2 -4 -6 3 -8 18 -5 14 2 25 8 25 12 0
5 14 7 30 5 17 -2 28 0 25 4 -2 5 23 12 58 15 96 11 106 25 17 27 -199 4 -562
53 -596 80 -6 5 -19 7 -28 3 -9 -3 -16 -1 -16 5 0 6 -3 10 -7 10 -28 -5 -53 3
-53 16 0 8 5 15 11 15 8 0 8 5 -1 15 -10 12 -10 15 1 16 8 0 -4 9 -26 18 -22
10 -43 17 -46 15 -4 -2 -18 7 -30 21 -30 31 -49 32 -49 1z m77 -83 c-3 -10 -5
-2 -5 17 0 19 2 27 5 18 2 -10 2 -26 0 -35z m47 -4 c-8 -14 -24 -10 -24 6 0 9
6 12 15 9 8 -4 12 -10 9 -15z"/>
</g>
</svg>
